<?xml version="1.0" encoding="UTF-8"?>
<!DOCTYPE svg PUBLIC "-//W3C//DTD SVG 1.1//EN" "http://www.w3.org/Graphics/SVG/1.1/DTD/svg11.dtd">
<!-- Creator: CorelDRAW X7 -->
<svg xmlns="http://www.w3.org/2000/svg" xml:space="preserve" width="1.82578in" height="0.53285in" version="1.1" style="shape-rendering:geometricPrecision; text-rendering:geometricPrecision; image-rendering:optimizeQuality; fill-rule:evenodd; clip-rule:evenodd"
viewBox="0 0 1826 533"
 xmlns:xlink="http://www.w3.org/1999/xlink">
 <defs>
  <style type="text/css">
   <![CDATA[
    .fil1 {fill:#0F3063}
    .fil2 {fill:#FFB600;fill-rule:nonzero}
    .fil0 {fill:#0F3063;fill-rule:nonzero}
   ]]>
  </style>
 </defs>
 <g id="Layer_x0020_1">
  <metadata id="CorelCorpID_0Corel-Layer"/>
  <g id="_378232696">
   <path class="fil0" d="M2 366c0,-26 -1,-48 -2,-68l50 0 2 34 2 0c11,-18 32,-39 71,-39 30,0 53,17 63,42l1 0c8,-13 18,-22 29,-29 12,-9 27,-13 46,-13 38,0 77,25 77,99l0 136 -57 0 0 -127c0,-39 -13,-61 -41,-61 -20,0 -34,14 -40,30 -2,6 -3,13 -3,20l0 138 -57 0 0 -133c0,-33 -13,-55 -40,-55 -21,0 -36,17 -41,33 -2,5 -3,12 -3,19l0 136 -57 0 0 -162z"/>
   <path class="fil0" d="M562 472c0,21 0,41 3,56l-53 0 -3 -26 -2 0c-14,18 -38,31 -68,31 -46,0 -72,-34 -72,-69 0,-58 51,-87 136,-86l0 -4c0,-15 -6,-40 -46,-40 -23,0 -47,7 -62,17l-11 -38c17,-11 46,-20 83,-20 73,0 95,46 95,96l0 83zm-57 -57c-41,-1 -80,8 -80,43 0,23 14,33 33,33 23,0 40,-15 45,-31 1,-5 2,-9 2,-13l0 -32z"/>
   <path class="fil0" d="M602 366c0,-26 -1,-48 -2,-68l51 0 3 34 1 0c10,-18 35,-39 73,-39 40,0 82,25 82,98l0 137 -58 0 0 -130c0,-33 -13,-58 -44,-58 -23,0 -39,16 -45,34 -2,5 -3,12 -3,19l0 135 -58 0 0 -162z"/>
   <path class="fil0" d="M1062 205l0 258c0,24 1,49 1,65l-51 0 -3 -37 -1 0c-13,26 -41,42 -75,42 -55,0 -98,-47 -98,-118 0,-77 48,-122 103,-122 32,0 54,13 65,30l1 0 0 -118 58 0zm-58 189c0,-5 -1,-11 -2,-16 -5,-22 -23,-41 -50,-41 -37,0 -58,33 -58,76 0,42 21,73 58,73 23,0 44,-16 50,-41 1,-5 2,-11 2,-17l0 -34z"/>
   <polygon class="fil1" points="1103,528 1161,528 1161,298 1103,298 "/>
   <path class="fil0" d="M1202 372c0,-31 0,-53 -2,-74l51 0 2 44 2 0c11,-33 38,-44 62,-44 6,0 9,-1 14,0l0 51c-5,-1 -10,-2 -17,-2 -28,0 -47,18 -52,44 -1,5 -2,11 -2,18l0 119 -58 0 0 -156z"/>
   <polygon class="fil1" points="1358,528 1417,528 1417,298 1358,298 "/>
   <path class="fil2" d="M1778 55c-29,-33 -60,-18 -84,-6 -10,5 -48,30 -85,47 -26,12 -64,9 -84,-17 -2,-1 -35,-42 -39,-47 -21,-27 -76,-50 -142,-12 -35,20 -118,68 -149,85 -19,10 -62,14 -87,-19 0,-1 -33,-41 -34,-43 -1,-1 -22,-32 -69,-33 -7,0 -41,0 -75,19 -44,25 -147,84 -147,84 -1,0 -1,0 -1,0 -42,25 -75,44 -75,44l39 48c18,23 60,40 95,20 0,0 133,-77 133,-77 57,-32 102,-32 131,-20 26,11 49,39 49,39 0,0 30,37 35,43 17,21 46,13 46,13 0,0 10,-1 26,-10 0,0 128,-75 128,-75 41,-24 78,-28 97,-26 60,5 78,47 104,76 16,17 29,27 50,26 14,0 30,-8 32,-10l154 -88c0,0 -16,-24 -48,-61z"/>
  </g>
 </g>
</svg>
