<?xml version="1.0" encoding="UTF-8"?>
<!DOCTYPE svg PUBLIC "-//W3C//DTD SVG 1.1//EN" "http://www.w3.org/Graphics/SVG/1.1/DTD/svg11.dtd">
<!-- Creator: CorelDRAW X7 -->
<svg xmlns="http://www.w3.org/2000/svg" xml:space="preserve" width="1.81904in" height="0.570669in" version="1.1" style="shape-rendering:geometricPrecision; text-rendering:geometricPrecision; image-rendering:optimizeQuality; fill-rule:evenodd; clip-rule:evenodd"
viewBox="0 0 1819 571"
 xmlns:xlink="http://www.w3.org/1999/xlink">
 <defs>
  <style type="text/css">
   <![CDATA[
    .fil0 {fill:#005FAF}
   ]]>
  </style>
 </defs>
 <g id="Layer_x0020_1">
  <metadata id="CorelCorpID_0Corel-Layer"/>
  <g id="_287955504">
   <path class="fil0" d="M1069 186c-12,35 -39,67 -78,86 25,13 40,34 46,58 6,21 5,45 -2,68 -7,23 -20,45 -39,65 -30,31 -76,54 -132,53l0 0 -219 0 -3 0 1 -2 83 -325 -30 0 -4 0 2 -3 70 -138 0 -1 1 0 190 0c45,0 76,13 96,33 14,13 22,31 25,49 3,18 0,38 -7,57zm440 -87l-71 127 -2 2 -1 -2c-27,-22 -57,-34 -87,-37 -23,-3 -46,0 -67,8 -21,8 -39,21 -53,38 -15,18 -25,41 -28,68 2,26 8,47 18,62 10,15 23,25 39,31 15,7 33,9 51,8 38,-2 77,-16 104,-34l3 2 -70 145 -1 1c-7,4 -33,11 -68,12 -31,2 -70,-1 -106,-14 -37,-13 -70,-35 -93,-74 -14,-25 -24,-57 -26,-98l0 0c4,-53 17,-97 36,-133 34,-63 86,-104 138,-128 52,-24 105,-32 140,-30 14,1 25,4 32,7l12 -14 1 -2 1 1 98 51 1 1 -1 2zm65 -52l221 0 1 0 1 2 22 465 0 2 -2 0 -148 0 -2 0 0 -1 -3 -79 -96 0 -32 79 -1 1 -1 0 -161 0 -3 0 1 -2 165 -330 -33 0 -3 0 2 -2 70 -134 0 -1 2 0zm90 160l-49 118 52 0 -3 -118zm-852 186l52 0 0 0c16,1 32,-8 41,-21 3,-5 6,-10 7,-15 1,-5 1,-10 -1,-15 -3,-8 -12,-16 -29,-19l-51 0 -19 70zm41 -158l44 0 0 0c11,1 25,-8 33,-19 3,-4 5,-9 7,-13 1,-5 1,-9 0,-13 -2,-6 -9,-12 -21,-15l-50 0 -13 60z"/>
   <path class="fil0" d="M516 56c-146,-75 -321,-73 -461,-4 -72,127 -74,305 0,462 154,78 324,73 462,3 65,-133 76,-294 -1,-461l0 0zm-101 436l8 -2 -9 -13 1 15zm-141 -2l-2 12c4,-1 10,3 12,-5 -1,-7 -5,-7 -10,-7zm68 0c-1,-3 -3,-6 -10,-4l2 12c6,-1 9,-4 8,-8zm-154 -10l-3 11c4,0 9,3 12,-3 0,-4 0,-8 -9,-8zm148 27l2 12c5,1 9,-2 8,-8 -2,-5 -6,-4 -10,-4zm-67 -73l-9 0c-2,-24 -8,-44 -20,-59 -57,-71 -172,-18 -142,-138 15,-62 191,-98 171,197zm-171 -119c12,26 89,30 116,49 43,30 37,70 37,70l-10 0c-20,-60 -76,-12 -120,-28 -28,-10 -48,-53 -23,-91l0 0zm141 198l4 -33 7 0 -3 37c-4,16 -27,14 -30,-2l4 -37 8 1 -4 32c1,10 11,9 14,2l0 0zm-40 9l-9 -2c1,-7 10,-22 -7,-22l-5 19 -9 -2 10 -45c24,3 27,10 27,17 -1,6 -2,10 -7,11 5,5 0,16 0,24l0 0zm-54 -51c-3,4 -7,14 -8,23 -1,9 8,7 10,6 2,-1 3,-8 3,-8l-6 -2 2 -6 14 4 -7 24 -5 -2 0 -4c-7,4 -19,1 -21,-7 -1,-6 3,-26 10,-35 7,-9 25,0 25,5 1,6 -2,12 -2,12l-6 -2c0,0 0,-1 1,-4 1,-4 -8,-7 -10,-4l0 0zm126 38l-1 20 -7 0 2 -47c17,0 27,2 27,14 -1,17 -15,13 -21,13l0 0zm17 -75l-11 0c-1,-41 7,-116 -15,-171 -16,-42 -57,-60 -67,-94 -14,-54 11,-112 93,-116 72,7 94,63 82,114 -21,52 -42,45 -68,96 -22,55 -14,127 -14,171zm129 76l-8 3 -3 -48 10 -2 23 39 -6 4 -8 -11 -9 4 1 11 0 0zm-94 -76l-9 0c8,-105 140,-82 152,-119 21,37 13,67 -9,83 -54,39 -106,-29 -134,36zm49 54l4 21c3,6 5,5 9,4 4,-3 3,-7 2,-11l8 -1c3,16 -5,18 -11,19 -12,1 -14,-2 -17,-17 -2,-14 -5,-28 6,-31 18,-2 17,6 19,12l-8 1c-1,-5 -3,-7 -7,-7 -4,2 -6,5 -5,10l0 0zm-17 22c1,7 -2,12 -6,13l-19 4 -7 -45c4,-1 22,-8 27,4 2,8 0,11 -3,14 5,2 7,6 8,10l0 0zm-48 -229c42,-118 138,-97 159,-44 29,107 -65,77 -125,121 -22,20 -34,42 -35,77l-10 0c0,-69 -2,-118 11,-154l0 0z"/>
  </g>
 </g>
</svg>
